<svg width="78" height="19" viewBox="0 0 78 19" fill="none" xmlns="http://www.w3.org/2000/svg">
<path d="M0.612343 18V1.2H7.35634C9.10034 1.2 10.4283 1.608 11.3403 2.424C12.2683 3.224 12.7323 4.256 12.7323 5.52C12.7323 6.576 12.4443 7.424 11.8683 8.064C11.3083 8.688 10.6203 9.112 9.80434 9.336C10.7643 9.528 11.5563 10.008 12.1803 10.776C12.8043 11.528 13.1163 12.408 13.1163 13.416C13.1163 14.744 12.6363 15.84 11.6763 16.704C10.7163 17.568 9.35634 18 7.59634 18H0.612343ZM3.68434 8.256H6.90034C7.76434 8.256 8.42834 8.056 8.89234 7.656C9.35634 7.256 9.58834 6.688 9.58834 5.952C9.58834 5.248 9.35634 4.696 8.89234 4.296C8.44434 3.88 7.76434 3.672 6.85234 3.672H3.68434V8.256ZM3.68434 15.504H7.11634C8.02834 15.504 8.73234 15.296 9.22834 14.88C9.74034 14.448 9.99634 13.848 9.99634 13.08C9.99634 12.296 9.73234 11.68 9.20434 11.232C8.67634 10.784 7.96434 10.56 7.06834 10.56H3.68434V15.504ZM18.825 18.288C17.801 18.288 16.961 18.128 16.305 17.808C15.649 17.472 15.161 17.032 14.841 16.488C14.521 15.944 14.361 15.344 14.361 14.688C14.361 13.584 14.793 12.688 15.657 12C16.521 11.312 17.817 10.968 19.545 10.968H22.569V10.68C22.569 9.864 22.337 9.264 21.873 8.88C21.409 8.496 20.833 8.304 20.145 8.304C19.521 8.304 18.977 8.456 18.513 8.76C18.049 9.048 17.761 9.48 17.649 10.056H14.649C14.729 9.192 15.017 8.44 15.513 7.8C16.025 7.16 16.681 6.672 17.481 6.336C18.281 5.984 19.177 5.808 20.169 5.808C21.865 5.808 23.201 6.232 24.177 7.08C25.153 7.928 25.641 9.128 25.641 10.68V18H23.025L22.737 16.08C22.385 16.72 21.889 17.248 21.249 17.664C20.625 18.08 19.817 18.288 18.825 18.288ZM19.521 15.888C20.401 15.888 21.081 15.6 21.561 15.024C22.057 14.448 22.369 13.736 22.497 12.888H19.881C19.065 12.888 18.481 13.04 18.129 13.344C17.777 13.632 17.601 13.992 17.601 14.424C17.601 14.888 17.777 15.248 18.129 15.504C18.481 15.76 18.945 15.888 19.521 15.888ZM32.7525 18C31.5045 18 30.5045 17.696 29.7525 17.088C29.0005 16.48 28.6245 15.4 28.6245 13.848V8.664H26.5845V6.096H28.6245L28.9845 2.904H31.6965V6.096H34.9125V8.664H31.6965V13.872C31.6965 14.448 31.8165 14.848 32.0565 15.072C32.3125 15.28 32.7445 15.384 33.3525 15.384H34.8405V18H32.7525ZM40.694 18.288C39.67 18.288 38.83 18.128 38.174 17.808C37.518 17.472 37.03 17.032 36.71 16.488C36.39 15.944 36.23 15.344 36.23 14.688C36.23 13.584 36.662 12.688 37.526 12C38.39 11.312 39.686 10.968 41.414 10.968H44.438V10.68C44.438 9.864 44.206 9.264 43.742 8.88C43.278 8.496 42.702 8.304 42.014 8.304C41.39 8.304 40.846 8.456 40.382 8.76C39.918 9.048 39.63 9.48 39.518 10.056H36.518C36.598 9.192 36.886 8.44 37.382 7.8C37.894 7.16 38.55 6.672 39.35 6.336C40.15 5.984 41.046 5.808 42.038 5.808C43.734 5.808 45.07 6.232 46.046 7.08C47.022 7.928 47.51 9.128 47.51 10.68V18H44.894L44.606 16.08C44.254 16.72 43.758 17.248 43.118 17.664C42.494 18.08 41.686 18.288 40.694 18.288ZM41.39 15.888C42.27 15.888 42.95 15.6 43.43 15.024C43.926 14.448 44.238 13.736 44.366 12.888H41.75C40.934 12.888 40.35 13.04 39.998 13.344C39.646 13.632 39.47 13.992 39.47 14.424C39.47 14.888 39.646 15.248 39.998 15.504C40.35 15.76 40.814 15.888 41.39 15.888ZM56.5376 18.288C55.6416 18.288 54.8576 18.12 54.1856 17.784C53.5136 17.448 52.9696 16.976 52.5536 16.368L52.2176 18H49.4816V0.719999H52.5536V7.8C52.9376 7.272 53.4416 6.808 54.0656 6.408C54.7056 6.008 55.5296 5.808 56.5376 5.808C57.6576 5.808 58.6576 6.08 59.5376 6.624C60.4176 7.168 61.1136 7.912 61.6256 8.856C62.1376 9.8 62.3936 10.872 62.3936 12.072C62.3936 13.272 62.1376 14.344 61.6256 15.288C61.1136 16.216 60.4176 16.952 59.5376 17.496C58.6576 18.024 57.6576 18.288 56.5376 18.288ZM55.8896 15.6C56.8656 15.6 57.6736 15.272 58.3136 14.616C58.9536 13.96 59.2736 13.112 59.2736 12.072C59.2736 11.032 58.9536 10.176 58.3136 9.504C57.6736 8.832 56.8656 8.496 55.8896 8.496C54.8976 8.496 54.0816 8.832 53.4416 9.504C52.8176 10.16 52.5056 11.008 52.5056 12.048C52.5056 13.088 52.8176 13.944 53.4416 14.616C54.0816 15.272 54.8976 15.6 55.8896 15.6ZM65.8338 4.248C65.2738 4.248 64.8098 4.08 64.4418 3.744C64.0898 3.408 63.9138 2.984 63.9138 2.472C63.9138 1.96 64.0898 1.544 64.4418 1.224C64.8098 0.887999 65.2738 0.719999 65.8338 0.719999C66.3938 0.719999 66.8498 0.887999 67.2018 1.224C67.5698 1.544 67.7538 1.96 67.7538 2.472C67.7538 2.984 67.5698 3.408 67.2018 3.744C66.8498 4.08 66.3938 4.248 65.8338 4.248ZM64.2978 18V6.096H67.3698V18H64.2978ZM74.9203 18C73.6723 18 72.6723 17.696 71.9203 17.088C71.1683 16.48 70.7923 15.4 70.7923 13.848V8.664H68.7523V6.096H70.7923L71.1523 2.904H73.8643V6.096H77.0803V8.664H73.8643V13.872C73.8643 14.448 73.9843 14.848 74.2243 15.072C74.4803 15.28 74.9123 15.384 75.5203 15.384H77.0083V18H74.9203Z" fill="#F7931A"/>
</svg>
